<?xml version="1.0" encoding="UTF-8"?>
<svg version="1.1" xmlns="http://www.w3.org/2000/svg" width="1496" height="1373">
<path d="M0 0 C493.68 0 987.36 0 1496 0 C1496 453.09 1496 906.18 1496 1373 C1002.32 1373 508.64 1373 0 1373 C0 919.91 0 466.82 0 0 Z " fill="#FEFEFE" transform="translate(0,0)"/>
<path d="M0 0 C9.74974385 6.62545618 16.62041337 15.21062249 22.74316406 25.18457031 C23.17242188 25.88066406 23.60167969 26.57675781 24.04394531 27.29394531 C25.11155583 29.22306394 25.94656081 31.12822239 26.74316406 33.18457031 C27.29810547 34.58255859 27.29810547 34.58255859 27.86425781 36.00878906 C32.6689771 50.05718975 32.86432829 67.19906157 27.74316406 81.18457031 C27.39125 82.18488281 27.03933594 83.18519531 26.67675781 84.21582031 C21.49031397 97.77246561 12.04692871 110.33110352 -0.25683594 118.18457031 C0.39344846 122.55209797 1.99207246 126.28927698 3.84082031 130.25878906 C4.15115204 130.93637268 4.46148376 131.6139563 4.78121948 132.31207275 C5.44329456 133.75613877 6.10774777 135.19911646 6.77438354 136.64108276 C7.80933066 138.88000233 8.83787237 141.12175752 9.86450195 143.36450195 C11.21060791 146.30470131 12.55853396 149.24405184 13.90820312 152.18261719 C16.18883548 157.15209074 18.44747849 162.13108963 20.68066406 167.12207031 C21.16515015 168.19171021 21.16515015 168.19171021 21.65942383 169.28295898 C23.74316406 173.95084432 23.74316406 173.95084432 23.74316406 176.18457031 C24.96390625 175.77464844 26.18464844 175.36472656 27.44238281 174.94238281 C58.70608449 164.61786817 88.71547791 166.14038273 118.41674805 180.92944336 C125.9804161 184.82530491 132.37563762 189.51677205 138.74316406 195.18457031 C139.53335937 195.84328125 140.32355469 196.50199219 141.13769531 197.18066406 C158.73056469 212.07615994 169.9087677 233.89545865 174.74316406 256.18457031 C175.07960938 257.63089844 175.07960938 257.63089844 175.42285156 259.10644531 C176.90733672 266.14249825 176.94834425 273.01466257 176.74316406 280.18457031 C177.41863281 280.42691406 178.09410156 280.66925781 178.79003906 280.91894531 C182.38348977 282.45899561 185.65476766 284.41798977 188.99316406 286.43457031 C197.66097134 291.60732551 206.45631941 296.53982207 215.27539062 301.44921875 C216.30116211 302.0205957 217.32693359 302.59197266 218.38378906 303.18066406 C219.29676758 303.68782959 220.20974609 304.19499512 221.15039062 304.7175293 C223.70811765 306.16474038 226.23008727 307.66136466 228.74316406 309.18457031 C229.13375 308.33958984 229.13375 308.33958984 229.53222656 307.47753906 C236.79464219 293.72580367 250.27429718 284.85401347 264.75878906 280.21972656 C282.81469764 275.39444065 299.07427142 278.58711998 315.48144531 287.20410156 C329.36216323 295.632274 339.03773343 309.33456402 343.61816406 324.80957031 C347.18043194 341.14907448 345.12430452 359.20134727 336.50488281 373.66113281 C333.31430154 378.2312337 329.6720543 382.2421555 325.74316406 386.18457031 C325.12828125 386.82265625 324.51339844 387.46074219 323.87988281 388.11816406 C311.72775074 399.80190561 295.7872374 403.68224786 279.43994141 403.53417969 C272.80758666 403.35873938 266.91198429 402.77658966 260.74316406 400.18457031 C259.63972656 399.73210937 258.53628906 399.27964844 257.39941406 398.81347656 C240.79413952 391.28695539 229.19101936 378.28437704 222.74316406 361.18457031 C219.35108042 351.5396096 219.42076745 342.26244946 219.74316406 332.18457031 C219.20079102 332.07717529 218.65841797 331.96978027 218.09960938 331.85913086 C212.3743814 330.66463677 206.98389738 328.99466092 201.49316406 326.99707031 C199.7540891 326.37585363 198.0144859 325.75611416 196.27441406 325.13769531 C195.37722656 324.81865234 194.48003906 324.49960937 193.55566406 324.17089844 C188.71978681 322.47498315 183.85715994 320.86021513 178.99316406 319.24707031 C178.06987305 318.94067627 177.14658203 318.63428223 176.1953125 318.31860352 C174.04500848 317.60600277 171.89433138 316.89455989 169.74316406 316.18457031 C169.47632813 317.03792969 169.20949219 317.89128906 168.93457031 318.77050781 C163.58905097 334.08848784 153.92412057 346.61293147 142.74316406 358.18457031 C141.958125 359.00699219 141.17308594 359.82941406 140.36425781 360.67675781 C119.28936635 381.33336898 89.59920912 388.78242961 60.93188477 388.67041016 C52.57572596 388.48276066 44.87229501 387.43806157 36.86816406 385.05957031 C33.64205284 384.00481703 33.64205284 384.00481703 29.74316406 384.18457031 C27.84074891 389.48236703 25.93849406 394.78022127 24.03637695 400.078125 C23.39156242 401.8740386 22.74670685 403.66993747 22.10180664 405.46582031 C21.79073975 406.33207031 21.47967285 407.19832031 21.15917969 408.09082031 C20.84995575 408.95165222 20.54073181 409.81248413 20.22213745 410.69940186 C19.60447281 412.42073968 18.98787117 414.14245933 18.37234497 415.86456299 C16.99344657 419.72026546 15.60523503 423.57096942 14.17041016 427.40625 C13.71359863 428.64020508 13.25678711 429.87416016 12.78613281 431.14550781 C12.3880542 432.20302246 11.98997559 433.26053711 11.57983398 434.35009766 C10.75088092 437.15842711 10.45930388 439.2783524 10.74316406 442.18457031 C12.16103575 443.91401113 12.16103575 443.91401113 14.18066406 445.30957031 C36.78786104 463.72285265 49.60444123 494.78939555 52.74316406 523.18457031 C53.90400462 538.25058678 52.65219557 552.6051997 48.74316406 567.18457031 C48.56124512 567.86310059 48.37932617 568.54163086 48.19189453 569.24072266 C39.55283955 600.16066475 18.5507114 627.27777278 -9.25683594 643.18457031 C-10.17674316 643.71244141 -10.17674316 643.71244141 -11.11523438 644.25097656 C-29.69137839 654.68982577 -49.95837255 659.58835065 -71.19433594 659.55957031 C-71.87392365 659.55902649 -72.55351135 659.55848267 -73.25369263 659.55792236 C-107.47388576 659.43249465 -137.16150238 646.18966327 -161.50683594 622.37207031 C-185.57194664 598.0412303 -196.55017054 565.26061172 -196.5715332 531.45776367 C-196.15910994 496.3578599 -180.07889536 467.40938586 -155.92871094 442.81347656 C-138.71464579 426.38985318 -116.41845781 416.56649878 -93.25683594 412.18457031 C-92.49411377 412.01022461 -91.7313916 411.83587891 -90.94555664 411.65625 C-85.35028769 410.67467735 -79.61156163 410.94191294 -73.94433594 410.93457031 C-72.9328096 410.93206268 -72.9328096 410.93206268 -71.90084839 410.92950439 C-60.27109199 410.92777189 -49.76020174 411.9263535 -38.59667969 415.28613281 C-35.18948505 416.35775094 -35.18948505 416.35775094 -31.25683594 416.18457031 C-29.68361189 414.45802781 -29.68361189 414.45802781 -28.44433594 412.07519531 C-27.93185303 411.18453369 -27.41937012 410.29387207 -26.89135742 409.3762207 C-26.35196533 408.40547607 -25.81257324 407.43473145 -25.25683594 406.43457031 C-24.10277053 404.41713814 -22.94780183 402.40022245 -21.79199219 400.38378906 C-21.20691895 399.35302246 -20.6218457 398.32225586 -20.01904297 397.26025391 C-17.31736661 392.54485923 -14.50756859 387.89647421 -11.69433594 383.24707031 C-10.2927407 380.92434742 -8.89319804 378.60096974 -7.51025391 376.26708984 C-6.68621685 374.89797491 -5.83668908 373.54382657 -4.96044922 372.20751953 C-3.63387822 370.19807879 -3.63387822 370.19807879 -2.25683594 367.18457031 C-3.05215073 363.80300963 -5.17378748 362.18669816 -7.81933594 360.05957031 C-26.77561184 343.87487987 -40.38893181 318.40674835 -43.08691406 293.44433594 C-45.46156792 261.86416918 -39.48089904 232.80550458 -18.69433594 208.24707031 C-12.13391709 200.70462744 -5.45180659 193.93848588 2.74316406 188.18457031 C2.17875647 182.48781635 0.60154595 177.77324488 -1.56933594 172.49707031 C-4.030582 166.35365496 -6.32335726 160.21017892 -8.36230469 153.91113281 C-10.21284444 148.27062299 -12.30467724 142.71170383 -14.39746094 137.15722656 C-14.76355469 136.17625 -15.12964844 135.19527344 -15.50683594 134.18457031 C-15.84199219 133.29769531 -16.17714844 132.41082031 -16.52246094 131.49707031 C-17.25683594 129.18457031 -17.25683594 129.18457031 -17.25683594 126.18457031 C-17.90265625 126.40113281 -18.54847656 126.61769531 -19.21386719 126.84082031 C-36.71255692 132.01143178 -54.86193718 129.7888472 -71.25683594 122.18457031 C-88.08247836 112.970019 -100.25001036 98.86357748 -106.25683594 80.64550781 C-112.06649611 60.53863707 -109.97114688 42.0577869 -100.24121094 23.51269531 C-90.36281517 6.94499218 -75.44587238 -3.99478738 -56.99902344 -9.12402344 C-56.09410156 -9.3521875 -55.18917969 -9.58035156 -54.25683594 -9.81542969 C-53.63147949 -9.98977539 -53.00612305 -10.16412109 -52.36181641 -10.34375 C-34.65675138 -14.3110645 -15.06501612 -9.52725054 0 0 Z " fill="#e58110" transform="translate(685.2568359375,308.8154296875)"/>
<path d="M0 0 C15.50543678 11.05338068 24.64266955 25.96531534 27.78515625 44.59375 C29.98410157 62.14496498 24.34614464 79.33491006 13.66015625 93.21875 C10.36910974 97.30281977 10.36910974 97.30281977 7.60546875 98.6796875 C5.42151189 99.50819498 5.42151189 99.50819498 4.78515625 102.59375 C-6.90634979 111.85043959 -21.13375085 117.00584483 -35.96484375 116.90625 C-36.84591797 116.90061035 -37.72699219 116.8949707 -38.63476562 116.88916016 C-56.68104068 116.55435601 -71.79171499 108.68028505 -84.265625 95.86328125 C-87.78271737 91.76822982 -90.51616894 87.25447154 -93.21484375 82.59375 C-93.61703125 81.93761719 -94.01921875 81.28148437 -94.43359375 80.60546875 C-102.07326818 67.09134769 -101.59503594 50.00670355 -98.30859375 35.32421875 C-93.40803394 18.60980941 -82.74639431 5.66206232 -67.83984375 -3.03125 C-46.08187088 -14.70075102 -20.78248792 -13.19523042 0 0 Z " fill="#e58110" transform="translate(874.21484375,733.40625)"/>
</svg>
