<?xml version="1.0" encoding="UTF-8"?>
<svg version="1.1" xmlns="http://www.w3.org/2000/svg" width="3780" height="1080">
<path d="M0 0 C0 20.46 0 40.92 0 62 C-12.27821371 63.11620125 -12.27821371 63.11620125 -16.7890625 62.8515625 C-18.23152344 62.79935547 -18.23152344 62.79935547 -19.703125 62.74609375 C-21.65994649 62.66499553 -23.61593381 62.56060244 -25.5703125 62.43359375 C-32.43281967 62.23989395 -36.00336131 63.68504323 -41.18701172 68.19506836 C-45.97967937 72.96643813 -47.97862324 77.2556336 -48 84 C-47.83062376 86.31389805 -47.64149406 88.6263966 -47.4375 90.9375 C-46.62573941 101.22711396 -48.37588744 107.96587678 -55 116 C-60.8612455 122.25610836 -67.61379893 126.16696911 -76 128 C-78.82175 128.06964936 -81.61648082 128.08492154 -84.43701172 128.05004883 C-85.28627228 128.04376968 -86.13553284 128.03749054 -87.01052856 128.03102112 C-88.85262522 128.01718389 -90.69470707 128.00125122 -92.53676987 127.98346901 C-95.45396473 127.95680939 -98.37108353 127.93895299 -101.2883606 127.92399597 C-109.58219144 127.8812648 -117.8758714 127.8335734 -126.16943359 127.75317383 C-131.24444971 127.70461668 -136.31925585 127.67564593 -141.39447403 127.65942955 C-143.32658098 127.64953849 -145.25866503 127.63233818 -147.1906395 127.60764503 C-149.89541892 127.57384377 -152.59923451 127.56500995 -155.30419922 127.56176758 C-156.09920837 127.54581543 -156.89421753 127.52986328 -157.71331787 127.51342773 C-164.09594211 127.54825275 -167.49800683 129.81659679 -172.30078125 134.0078125 C-172.96464844 134.70648438 -173.62851563 135.40515625 -174.3125 136.125 C-174.98925781 136.80820313 -175.66601562 137.49140625 -176.36328125 138.1953125 C-180.55221845 145.37349128 -179.21148932 155.67238551 -179.25 163.75 C-179.270625 164.84699219 -179.29125 165.94398438 -179.3125 167.07421875 C-179.34684817 174.1585289 -178.75392094 178.65842229 -174.1328125 184.265625 C-173.47023438 184.92046875 -172.80765625 185.5753125 -172.125 186.25 C-171.46757812 186.91515625 -170.81015625 187.5803125 -170.1328125 188.265625 C-165.24129706 192.24334086 -160.38570337 192.26880075 -154.29760742 192.17944336 C-153.43190628 192.17491653 -152.56620514 192.17038971 -151.67427063 192.16572571 C-149.79889599 192.15478773 -147.92354357 192.13929734 -146.04823875 192.11976433 C-143.07577927 192.08954188 -140.10351706 192.07277528 -137.13093567 192.05970764 C-128.680808 192.0200087 -120.23091837 191.95499989 -111.78100586 191.88354492 C-106.60759163 191.84072628 -101.43425797 191.81269293 -96.26070595 191.79324532 C-94.29397926 191.78270731 -92.32727452 191.76634309 -90.3606472 191.74394035 C-87.60385058 191.71259096 -84.84752424 191.69994458 -82.09057617 191.69116211 C-81.28562714 191.67723419 -80.4806781 191.66330627 -79.65133667 191.6489563 C-70.69571404 191.66347358 -63.55827146 194.93916231 -57 201 C-49.32443068 209.55019215 -47.16414028 216.53753677 -47 228 C-47.48262393 236.44591877 -51.98390227 243.97558737 -57.88671875 249.890625 C-68.22606066 258.1956542 -79.17377463 258.61347711 -91.87109375 258.56640625 C-93.60165234 258.57165185 -95.33220808 258.57793173 -97.0627594 258.58518982 C-100.67617318 258.59555276 -104.28919214 258.59109217 -107.90258789 258.57641602 C-112.5067592 258.55923551 -117.10968155 258.58273549 -121.71371365 258.61790562 C-125.28367704 258.63998756 -128.85334653 258.6384122 -132.42335701 258.6301403 C-134.1196333 258.62932666 -135.81593247 258.63607646 -137.51214409 258.65091133 C-150.37349306 258.74617406 -160.6063017 257.05902559 -170.28515625 247.875 C-175.71357855 241.93959521 -180.082666 234.251999 -179.97363281 226.00585938 C-179.80759831 223.04380392 -179.59267346 220.09933506 -179.24560547 217.15258789 C-178.60022132 210.82444192 -180.00887429 206.46467059 -184.0859375 201.41796875 C-184.84132813 200.68191406 -185.59671875 199.94585937 -186.375 199.1875 C-187.12523438 198.43855469 -187.87546875 197.68960938 -188.6484375 196.91796875 C-194.88851632 191.82846924 -202.08364291 192.66142629 -209.71948242 192.68432617 C-211.92742315 192.68748558 -214.13402154 192.66400337 -216.34179688 192.63867188 C-217.75781082 192.6363984 -219.17382834 192.63569561 -220.58984375 192.63671875 C-221.86722412 192.63373779 -223.14460449 192.63075684 -224.46069336 192.62768555 C-230.34074227 193.24623246 -234.19188118 195.77553169 -238.25 199.9375 C-238.91515625 200.60652344 -239.5803125 201.27554688 -240.265625 201.96484375 C-243.98337504 206.32733873 -244.33995536 210.15116062 -244.40625 215.765625 C-244.41765015 216.51785339 -244.42905029 217.27008179 -244.4407959 218.04510498 C-244.45965398 219.63531915 -244.47274725 221.22561073 -244.48046875 222.81591797 C-244.49983115 225.22895646 -244.56187055 227.63854583 -244.625 230.05078125 C-244.85964741 240.66513 -244.85964741 240.66513 -239.60009766 249.5871582 C-238.80804932 250.28651489 -238.80804932 250.28651489 -238 251 C-237.47841309 251.5055542 -236.95682617 252.0111084 -236.41943359 252.53198242 C-231.99339196 256.55991819 -228.66569346 257.15061795 -222.859375 256.9921875 C-221.87066406 256.97542969 -220.88195313 256.95867187 -219.86328125 256.94140625 C-217.80319566 256.89746465 -215.74326405 256.84550328 -213.68359375 256.78515625 C-203.6340347 256.64177733 -195.7130785 259.37891648 -188 266 C-179.52885445 275.90447626 -178.74060011 283.90804843 -179.16601562 296.50195312 C-179.30334377 303.7614028 -178.77758666 308.54940466 -174.09765625 314.36328125 C-173.42605469 315.00652344 -172.75445313 315.64976562 -172.0625 316.3125 C-171.39347656 316.96863281 -170.72445312 317.62476563 -170.03515625 318.30078125 C-165.97914497 321.68727819 -163.01647945 322.24859826 -157.73983765 322.23377991 C-156.45301086 322.23508408 -155.16618408 322.23638824 -153.84036255 322.23773193 C-152.41619764 322.22905885 -150.99203384 322.22020259 -149.56787109 322.21118164 C-148.06628521 322.20898 -146.56469778 322.20767485 -145.06311035 322.2071991 C-141.82955006 322.20426565 -138.59609089 322.19501753 -135.36256027 322.18089485 C-130.24314242 322.1586105 -125.12376202 322.15053484 -120.00430298 322.14439392 C-111.89898081 322.13300864 -103.79371408 322.11228532 -95.6884228 322.08749622 C-81.19539745 322.0432348 -66.70235382 322.00990874 -52.2092787 321.98725218 C-47.12739255 321.97887693 -42.04556251 321.96488313 -36.96370387 321.94627964 C-33.79038188 321.9355759 -30.61706036 321.92903101 -27.44372559 321.92347908 C-25.98049007 321.9200317 -24.51725738 321.91484347 -23.05403519 321.90771103 C-21.04339519 321.89813289 -19.03272566 321.89554121 -17.02206421 321.89320374 C-15.34021058 321.88792459 -15.34021058 321.88792459 -13.62438011 321.8825388 C-9.07006124 322.03013804 -4.5340959 322.54659041 0 323 C0 344.12 0 365.24 0 387 C-9.90072156 388.32009621 -18.94203884 389.28992106 -28.80078125 389.24291992 C-30.7330381 389.24576744 -30.7330381 389.24576744 -32.70433044 389.24867249 C-36.18525524 389.25345025 -39.6660485 389.24595794 -43.1469574 389.23571944 C-46.81248791 389.2268318 -50.47801559 389.22869836 -54.14355469 389.2290802 C-60.28599202 389.22814903 -66.42837939 389.21953491 -72.57080078 389.20581055 C-79.65725165 389.19003476 -86.74364816 389.1848147 -93.83011532 389.1855461 C-101.41046343 389.18622258 -108.99079082 389.17928276 -116.57113266 389.1700995 C-118.74319285 389.16797541 -120.91524966 389.16725935 -123.08731079 389.16686058 C-127.136358 389.16566506 -131.18534169 389.15593675 -135.234375 389.14526367 C-136.42929062 389.14571686 -137.62420624 389.14617004 -138.85533142 389.14663696 C-144.34821344 389.12547484 -149.58931359 388.95911589 -155 388 C-160.41679737 387.50496755 -164.40491205 387.90534893 -169 391 C-175.63918737 396.46516152 -175.63918737 396.46516152 -179 404 C-179.01291527 405.73994518 -178.96982609 407.48074275 -178.88671875 409.21875 C-178.39872002 423.40468072 -178.48009591 433.05873824 -188.375 444 C-191.88001978 447.18005105 -195.64621447 449.20620431 -200 451 C-200.9075 451.4125 -201.815 451.825 -202.75 452.25 C-212.94286483 454.60219958 -221.75649606 452.71480738 -231 448 C-239.16216595 442.17496587 -243.48267724 433.55729321 -246 424 C-247.37082474 415.62102628 -244.1761616 406.76789432 -239.5 399.87890625 C-234.22283665 393.26870945 -228.17388774 389.23595381 -220 387 C-215.91442051 386.64917859 -211.9040683 386.79503728 -207.8125 387 C-198.76061416 387.44839063 -194.00720076 387.07690116 -186.85546875 381.25390625 C-186.02982422 380.41666016 -186.02982422 380.41666016 -185.1875 379.5625 C-184.62417969 379.00691406 -184.06085937 378.45132812 -183.48046875 377.87890625 C-178.66932562 371.7729436 -179.62781074 364.21550719 -179.62939453 356.85327148 C-179.62501946 354.57264616 -179.5886589 352.29395559 -179.55078125 350.01367188 C-179.54491237 348.5520899 -179.54094345 347.0904988 -179.5390625 345.62890625 C-179.53084473 344.30963135 -179.52262695 342.99035645 -179.51416016 341.63110352 C-180.46512397 334.52372425 -185.74476525 329.52666811 -191 325 C-196.36666865 321.83504157 -202.45359993 322.75666748 -208.375 323.625 C-217.94628958 324.72307603 -226.19229347 321.40072951 -234 316 C-240.37719941 310.39042644 -245.12101078 302.57014491 -246 294 C-246.15995544 289.36129227 -245.88707989 285.04045321 -245.3125 280.4375 C-244.85542383 275.40966208 -245.26299766 272.39579163 -248 268 C-251.8364793 263.47577171 -255.24325476 259.79694697 -261 258 C-263.86008635 257.84206783 -266.61510108 257.78756252 -269.47119141 257.83642578 C-270.31256653 257.8425589 -271.15394165 257.84869202 -272.02081299 257.85501099 C-273.84380546 257.86929025 -275.66676713 257.88805416 -277.48967361 257.91080093 C-280.38314102 257.94569331 -283.27638565 257.96621696 -286.17001343 257.9826355 C-294.39594614 258.03142802 -302.62158022 258.10230316 -310.84716797 258.19189453 C-315.88443391 258.24575161 -320.92152544 258.27964916 -325.95902634 258.30163193 C-327.87026772 258.3139751 -329.78147689 258.33388883 -331.69255447 258.3617897 C-345.844793 258.56646565 -357.07517106 257.98811039 -367.765625 247.62109375 C-373.84051123 240.49478491 -377.23675655 232.40261746 -377 223 C-376.71887936 220.99199544 -376.38932033 218.98985949 -376 217 C-375.50115569 211.52379797 -375.8653141 207.70202886 -379 203 C-382.91253169 198.49466047 -386.25203882 194.91268273 -392 193 C-394.54042132 192.79052481 -394.54042132 192.79052481 -397.16796875 192.9453125 C-398.14443359 192.96980469 -399.12089844 192.99429688 -400.12695312 193.01953125 C-402.1480963 193.08918137 -404.16897214 193.16714519 -406.18945312 193.25390625 C-416.33365349 193.48007203 -423.89290315 190.79379056 -431.25390625 183.7734375 C-431.83011719 183.18820312 -432.40632813 182.60296875 -433 182 C-433.9075 181.0925 -434.815 180.185 -435.75 179.25 C-441.0261041 171.62896075 -443.3325798 163.22145221 -442 154 C-439.03857557 143.54435865 -433.18757214 135.37046511 -423.8671875 129.703125 C-415.93562096 125.77998456 -407.13563353 125.03448244 -398.546875 127.0859375 C-388.4332171 130.71568589 -382.28850779 137.10336534 -377.1875 146.25 C-375.35147387 150.50184998 -374.88949013 153.83185699 -375.0078125 158.46484375 C-375.03294922 160.03588867 -375.03294922 160.03588867 -375.05859375 161.63867188 C-375.10278943 163.83415733 -375.15484667 166.0294989 -375.21484375 168.22460938 C-375.22902344 169.27326172 -375.24320313 170.32191406 -375.2578125 171.40234375 C-375.2798877 172.35616943 -375.30196289 173.30999512 -375.32470703 174.29272461 C-374.72163695 179.32087808 -371.63373254 182.67329444 -368.1875 186.1875 C-367.54167969 186.86167969 -366.89585937 187.53585937 -366.23046875 188.23046875 C-361.48001179 191.99922007 -356.94861759 192.20190375 -351.0859375 191.63330078 C-349.75128406 191.51915259 -348.41630436 191.40876713 -347.08105469 191.30181885 C-346.40296753 191.24732826 -345.72488037 191.19283768 -345.02624512 191.13669586 C-339.2387184 190.74625398 -333.42255368 190.85829147 -327.625 190.8671875 C-326.20263655 190.86651058 -324.78027322 190.86553737 -323.35791016 190.86428833 C-320.40330891 190.86282955 -317.44873826 190.86490639 -314.49414062 190.86962891 C-310.75299643 190.87532505 -307.01192405 190.87203614 -303.27078247 190.86605644 C-300.34154747 190.86240108 -297.41232882 190.86361195 -294.48309326 190.86618423 C-292.44787549 190.86715282 -290.41265701 190.86417639 -288.37744141 190.86105347 C-280.578565 190.88038269 -272.89106282 191.21847038 -265.12524414 191.87747192 C-259.68452808 192.09078021 -257.06096337 190.76056465 -252.8828125 187.19140625 C-248.05221738 182.64445818 -245.16572662 179.20404793 -244.8125 172.375 C-244.88091723 169.07231356 -245.2442831 165.8421697 -245.625 162.5625 C-246.51501877 152.91841602 -243.77740123 145.73736218 -238 138 C-230.80000845 130.05727248 -222.8070141 126.63259942 -212.19921875 126.0078125 C-207.73101117 125.99690113 -203.34395946 126.4084708 -198.91015625 126.94140625 C-195.71177162 127.00580326 -193.86719305 126.35354799 -191 125 C-190.01 124.67 -189.02 124.34 -188 124 C-188 123.34 -188 122.68 -188 122 C-186.125 119.875 -186.125 119.875 -184 118 C-183.34 118 -182.68 118 -182 118 C-179.54078417 111.93393428 -178.17920462 107.10397692 -179.5 100.5 C-181.17781286 92.1109357 -179.01103211 84.13156273 -174.8125 76.8125 C-169.44567209 68.85866821 -161.40654683 63.04466233 -152 61 C-149.17844949 60.9253346 -146.38353091 60.9047547 -143.56298828 60.93408203 C-142.71372772 60.93875488 -141.86446716 60.94342773 -140.98947144 60.94824219 C-139.14737796 60.95873436 -137.30529585 60.97139363 -135.46323013 60.98596573 C-132.54603124 61.00799587 -129.6288974 61.02207026 -126.7116394 61.03366089 C-118.41785789 61.06724817 -110.12418413 61.1088712 -101.83056641 61.17138672 C-96.7555557 61.20907158 -91.68065578 61.23206893 -86.60552597 61.24569321 C-84.67343939 61.25373919 -82.74136755 61.26733638 -80.8093605 61.28662491 C-78.10470216 61.31315529 -75.40057328 61.32100173 -72.69580078 61.32470703 C-71.90079163 61.3370639 -71.10578247 61.34942078 -70.28668213 61.3621521 C-64.52414964 61.34137327 -60.53295853 60.03990172 -55.953125 56.3515625 C-55.39109375 55.78179687 -54.8290625 55.21203125 -54.25 54.625 C-53.67765625 54.06039062 -53.1053125 53.49578125 -52.515625 52.9140625 C-49.4722449 49.07061856 -48.75284289 45.57370272 -49.05078125 40.75390625 C-49.66393913 26.61352472 -49.32490946 17.08416719 -40.2109375 5.78125 C-28.63168692 -5.84727399 -14.24685113 -5.69874045 0 0 Z " fill="#0D47A1" transform="translate(3780,80)"/>
<path d="M0 0 C6.84326983 4.90434338 13.13805112 12.04139269 14.671875 20.57421875 C15.36143662 32.08459342 14.70410927 40.47503825 7.41015625 49.6875 C1.30443754 56.31460592 -6.44848674 61.0696299 -15.51171875 61.734375 C-25.6952419 62.09977443 -33.79035181 59.49467431 -41.328125 52.57421875 C-46.80879623 47.16966795 -51.56238596 40.42304388 -52.328125 32.57421875 C-52.39128906 31.94128906 -52.45445312 31.30835938 -52.51953125 30.65625 C-52.997205 21.95026064 -49.83302674 13.30243199 -44.328125 6.57421875 C-31.76342328 -6.15876022 -15.84774397 -9.70541368 0 0 Z " fill="#0D47A1" transform="translate(3259.328125,81.42578125)"/>
</svg>
